# xmcd CD database file
#
# Track frame offsets:
#	150
#	25199
#	49802
#	82906
#	117534
#	155092
#	209318
#	247103
#	281051
#
# Disc length: 4156 seconds
#
# Revision: 0
# Processed by: cddbd v1.5.2PL0 Copyright (c) Steve Scherf et al.
# Submitted via: CDex 1.51
#
DISCID=7f103a09
DTITLE=Lolo Ortega - Live in Palace
DYEAR=2014
DGENRE=Blues
TTITLE0=01 Cheguerap (Lolo Ortega)
TTITLE1=02 Pride and Joy (Stevie Ray Vaughan)
TTITLE2=03 Despacito Baby (Lolo Ortega)
TTITLE3=04 Born in Chicago (Nick Cravenites)
TTITLE4=05 Messin with the kid (Amos Wells)
TTITLE5=06 Born in Giorgia (Luther Johnson)
TTITLE6=07 Crosscut Saw (R. G. Ford)
TTITLE7=08 Sevilla Boogie (Lolo Ortega)
TTITLE8=09 Caledonia (L. Jordan)
EXTD=YEAR: 2014
EXTT0=
EXTT1=
EXTT2=
EXTT3=
EXTT4=
EXTT5=
EXTT6=
EXTT7=
EXTT8=
PLAYORDER=
